<?xml version="1.0" standalone="no"?>
<!DOCTYPE svg PUBLIC "-//W3C//DTD SVG 20010904//EN"
 "http://www.w3.org/TR/2001/REC-SVG-20010904/DTD/svg10.dtd">
<svg version="1.0" xmlns="http://www.w3.org/2000/svg"
 width="390.000000pt" height="390.000000pt" viewBox="0 0 390.000000 390.000000"
 preserveAspectRatio="xMidYMid meet">
<metadata>
Created by potrace 1.14, written by Peter Selinger 2001-2017
</metadata>
<g transform="translate(0.000000,390.000000) scale(0.100000,-0.100000)"
fill="#000000" stroke="none">
<path d="M1750 3879 c0 -4 -15 -6 -32 -5 -18 2 -48 -1 -66 -6 -28 -8 -74 -16
-119 -20 -7 -1 -13 -5 -13 -10 0 -5 -4 -7 -9 -4 -4 3 -23 1 -42 -5 -19 -6 -47
-13 -64 -16 -16 -3 -33 -10 -37 -16 -4 -7 -8 -9 -8 -4 0 4 -13 1 -29 -7 -16
-9 -31 -13 -34 -10 -3 3 -16 0 -29 -7 -12 -7 -25 -14 -28 -14 -3 0 -16 -7 -30
-15 -14 -7 -27 -13 -30 -12 -6 2 -193 -90 -200 -98 -3 -3 -31 -21 -62 -39 -32
-18 -58 -37 -58 -42 0 -6 -4 -7 -10 -4 -5 3 -10 1 -10 -4 0 -6 -6 -11 -12 -11
-7 0 -27 -14 -45 -30 -18 -17 -34 -30 -37 -30 -9 0 -29 -18 -159 -145 -66 -63
-116 -115 -113 -115 3 0 -2 -8 -12 -18 -9 -10 -28 -33 -42 -51 -14 -18 -32
-42 -42 -51 -9 -10 -14 -21 -11 -24 4 -3 1 -6 -5 -6 -7 0 -12 -6 -12 -14 0 -8
-4 -16 -9 -18 -9 -3 -74 -110 -106 -173 -11 -22 -24 -43 -30 -47 -5 -4 -6 -8
-1 -8 5 0 3 -6 -3 -13 -6 -8 -8 -17 -4 -20 3 -4 2 -7 -4 -7 -6 0 -14 -10 -18
-22 -4 -13 -8 -25 -10 -28 -1 -3 -5 -14 -9 -25 -5 -11 -14 -33 -21 -50 -15
-34 -59 -179 -75 -245 -12 -50 -17 -78 -25 -130 -2 -19 -7 -51 -11 -70 -8 -48
-13 -420 -5 -420 3 0 6 -14 5 -31 0 -18 3 -53 8 -78 5 -25 10 -56 10 -69 0
-12 4 -25 8 -27 5 -3 6 -14 3 -24 -3 -10 0 -22 6 -25 5 -4 8 -13 4 -21 -3 -8
0 -15 6 -15 6 0 8 -7 5 -15 -3 -8 -2 -20 2 -27 5 -7 9 -16 10 -20 1 -5 3 -10
4 -13 4 -7 5 -15 14 -57 5 -21 13 -38 18 -38 6 0 8 -7 5 -15 -4 -8 -2 -17 4
-20 5 -4 7 -11 4 -16 -4 -5 -1 -9 4 -9 6 0 11 -8 11 -18 0 -10 3 -22 8 -26 4
-4 7 -11 7 -14 1 -4 8 -21 18 -38 9 -17 13 -34 10 -38 -4 -3 -2 -6 3 -6 5 0
21 -25 34 -55 13 -30 28 -55 32 -55 4 0 8 -7 8 -15 0 -8 7 -23 15 -32 8 -10
14 -21 13 -24 -2 -3 4 -13 12 -22 32 -35 40 -47 33 -47 -4 0 0 -5 9 -11 10 -5
18 -14 18 -19 0 -10 21 -38 52 -72 10 -10 16 -18 13 -18 -9 0 56 -70 157 -170
114 -111 145 -140 153 -140 3 0 15 -8 26 -19 11 -10 45 -35 77 -56 31 -21 69
-46 84 -56 15 -11 32 -19 37 -19 6 0 14 -7 19 -16 5 -9 12 -16 15 -16 19 0 47
-11 47 -19 0 -5 3 -8 8 -7 4 2 36 -11 72 -28 56 -27 90 -42 110 -49 3 -1 18
-7 33 -13 16 -7 34 -12 41 -12 6 0 17 -5 24 -12 7 -7 12 -9 12 -6 0 4 15 1 34
-7 18 -8 36 -11 40 -8 3 4 6 1 6 -6 0 -7 5 -9 10 -6 6 3 16 3 22 -1 7 -5 21
-9 30 -11 10 -2 26 -4 36 -6 9 -2 22 -5 27 -8 6 -3 20 -4 33 -3 12 0 22 -2 22
-5 0 -7 32 -10 123 -14 20 -1 37 -5 37 -8 0 -10 334 -7 353 3 11 6 17 5 17 -2
0 -6 4 -9 9 -6 5 3 26 8 47 11 22 3 50 8 64 10 14 3 39 7 55 10 47 8 67 12
115 25 25 7 53 14 63 16 11 2 25 8 33 15 8 6 14 9 14 5 0 -7 146 47 200 74 22
11 40 17 40 13 0 -5 4 -3 8 2 4 6 32 23 62 38 30 16 69 37 85 48 17 10 38 22
48 25 9 4 17 10 17 15 0 5 5 9 11 9 11 0 126 84 194 141 61 52 216 210 250
254 16 22 37 49 47 59 10 11 18 23 18 26 0 4 11 20 25 36 14 16 25 35 25 42 0
6 5 12 10 12 6 0 10 4 10 9 0 9 63 118 80 138 5 7 10 16 10 20 0 5 13 34 29
65 16 31 27 59 24 62 -4 3 0 6 7 6 7 0 11 3 8 6 -4 3 7 37 23 76 16 39 27 74
24 78 -3 5 -1 11 5 15 6 4 8 11 5 16 -4 5 -2 9 3 9 5 0 9 6 10 13 0 6 3 21 5
32 25 97 35 150 31 156 -2 4 -1 10 4 13 4 2 9 22 10 43 4 51 6 66 15 80 4 6 3
14 -3 18 -6 4 -7 12 -3 18 7 10 9 46 14 182 1 17 0 32 -1 35 -1 3 -3 37 -5 75
-4 87 -13 172 -21 205 -4 14 -8 34 -10 45 -1 11 -5 34 -9 50 -4 17 -7 38 -8
48 -1 9 -5 17 -10 17 -4 0 -7 6 -5 13 2 14 -28 122 -43 152 -6 12 -11 27 -13
35 -1 8 -10 33 -20 55 -26 58 -38 89 -36 94 1 2 -2 7 -7 10 -11 8 -65 111 -58
111 3 0 -3 10 -15 22 -11 12 -20 28 -20 35 0 7 -4 13 -10 13 -5 0 -10 6 -10
13 -1 11 -66 106 -102 147 -7 9 -26 34 -43 55 -38 51 -209 222 -260 260 -22
17 -51 40 -65 53 -14 12 -33 25 -42 28 -10 3 -18 9 -18 12 0 4 -20 18 -45 32
-25 14 -45 28 -45 32 0 5 -6 8 -13 8 -7 0 -23 9 -35 20 -12 12 -22 19 -22 16
0 -2 -39 15 -86 40 -47 24 -92 44 -100 44 -8 0 -14 5 -14 11 0 5 -4 8 -9 4 -5
-3 -12 -1 -15 4 -5 8 -63 25 -78 22 -5 0 -8 4 -8 10 0 6 -7 9 -15 5 -8 -3 -15
-1 -15 5 0 6 -6 9 -12 6 -7 -2 -21 0 -32 5 -23 12 -139 44 -186 52 -19 3 -48
8 -65 11 -16 3 -50 7 -75 8 -25 2 -50 6 -55 9 -14 8 -385 5 -385 -3z"/>
</g>
</svg>
